<svg xmlns="http://www.w3.org/2000/svg" xmlns:xlink="http://www.w3.org/1999/xlink" version="1.1" id="Layer_1" x="0px" y="0px" viewBox="0 0 1500 1500" style="enable-background:new 0 0 1500 1500;" xml:space="preserve">
<g>
	<path d="M1215.7,754.6c-1.1-23.9-2.3-47.8-3.2-71.8c-1.6-42.4-6.8-84.5-8.4-126.9c-0.3-9.5,0.2-19,1.9-28.4   c1.2-6.6,8.2-12.5,16.1-13.4c10.9-1.2,21.9,0.1,32.8,0.3c5.4,0.1,9.4,6.4,7.3,12.1c-1.8,4.9-1.1,9.3-0.6,14   c2.5,23.5,2.7,47.1,3,70.6c0.9,62.9,1.5,125.8,2.1,188.6c0.1,7.7-0.1,15.3-0.4,23c-0.1,3.3,0.2,5.7,4.4,5.5c4-0.2,6.8,1.3,7,5.9   c0.2,4.4-2.1,6.1-6.1,7c-12.9,2.8-25.9,5.3-39.1,5.7c-5.5,0.2-8.8-2.2-10.8-7.3c-15.2-38.9-24.8-79.5-37.2-119.3   c-8.4-27-18-53.6-28.1-80.1c0.6,15.2,1.4,30.5,1.9,45.7c1.2,34.9,3.9,69.8,4.3,104.7c0,1.3,0.5,2.3,1,3.5c3.3,7.3,1.5,13.1-6.1,16   c-15,5.9-30.9,7.5-46.9,6.9c-4.1-0.2-7.6-2.7-8.9-6.7c-1.1-3.6-3.5-4-6.5-4.4c-9.4-1.1-18.9-2.1-28.3-3.5c-5.2-0.8-9.5,0.3-14,3.2   c-26.5,16.9-36.8,45.1-27.1,74.8c0.9,2.7,2.9,4.5,4.3,6.7c1.4,2.1,1.5,4.4-0.6,6.1c-2.3,1.9-4.2,0.9-5.8-1.1   c-4.4-5.2-8.7-10.5-13.1-15.8c-1.4-1.8-2.7-3.3-5.5-3.1c-41.2,3.1-77.4,18.1-108.1,45.9c-14.1,12.8-25.6,27.5-35,44   c-2.4,4.1-4.8,8.2-3.8,13.3c0.4,2.4-0.1,4.8-3.2,5c-3,0.2-4.2-1.7-4.9-4.4c-11.9-48.7-43.7-78.4-90.6-92.5   c-25.2-7.6-50.7-5.4-75.9,2.1c-2.5,0.7-4.4,1.9-6.2,3.8c-5.5,5.6-11.1,11.2-16.7,16.7c-2.2,2.2-4.5,5-7.7,1.5   c-2.7-3-0.5-5.2,1.7-7.3c5.9-5.8,11.7-11.8,17.6-17.5c2.4-2.2,3.3-4.7,2.7-7.7c-5.6-28.5-20.4-51.7-52.4-58.1   c-6.2-1.2-12,0.7-17.7,2.1c-20.3,4.8-40.8,5.9-61.5,4.6c-8.7-0.6-17.4-0.2-26,1.2c-6.2,1-12,2.8-17.3,6.3c-6,3.8-10.9,2-12.3-5   c-1.9-9.7-2.4-19.7-2.3-29.6c0.1-28.7,0.7-57.5,0.4-86.2c-0.2-19.2-0.6-38.5,0.9-57.7c1.2-16.5,3.1-32.9,4.9-49.4   c0.6-5.1-0.4-7.2-6.1-5.8c-4.3,1.1-8.6,0.3-12.3-2.6c-2.8-2.2-3.4-5.1-2.7-8.3c0.7-3.3,3.4-3.2,6.1-4c20.2-6.2,40.9-3.3,61.4-4.5   c5.3-0.3,9,1.5,10.3,6.8c1.2,5,0.5,9.7-4.9,12c-2.8,1.2-2.8,3.2-2.8,5.5c-0.6,57.1-1.3,114.1,1.6,171.2c0.4,7.6,0.5,15.3,0.4,23   c0,3.5,0.6,5.3,4.7,5.1c9.1-0.3,18.2-0.1,27.3,0.9c2.8,0.3,4.1-0.6,4.2-3.6c0.1-2.7,0.7-5.4,1.5-7.9c0.7-2.3,1.5-5.2,4.8-4.7   c3.2,0.4,4.3,3.1,4.4,5.9c0.2,5.6,0.6,11.2,0.1,16.7c-0.4,4.8,0.4,6.1,5.5,4.9c76.4-17.5,153.9-26.6,232.1-30.3   c71.8-3.4,143.5-1.6,215,5.8c18.3,1.9,36.5,4.8,54.6,7.7c4.1,0.6,4.9-0.4,5.3-4c0.8-8.5,0.2-17-0.5-25.4c-2.8-33.1-1-66.1-0.3-99.2   c0.9-36.6,1.5-73.2,2.5-109.8c0.2-5.5-1.9-6.7-6.7-6.8c-4.5-0.1-9.1-0.7-13.6-1.4c-3-0.5-4.9-2.2-4.7-5.5c0.2-3.2,2-5.2,5-5.3   c9.7-0.2,18.6-3.7,27.9-5.7c8.8-1.8,17.7-1.7,26.5-0.8c6.2,0.7,10.7,3.9,11.3,10.4c2.4,29.5,13.6,56.5,23,84   c13.8,40.4,29,80.4,40.4,121.7c0.4,1.6,1,3.1,1.5,4.6C1214.9,754.6,1215.3,754.6,1215.7,754.6z M847.7,944.7   c-0.6-16.7-1-33.4-1-50.1c0-2.4-1-4.4-2-6.4c-8.2-16.6-21.2-28.3-37.7-36.2c-22.9-10.9-46.8-10.4-71-5.8   c-7.1,1.3-15.4,0.7-20.8,5.2c-9.4,8-17.4,17.8-26.8,27.7C756.8,858.9,819.2,891.3,847.7,944.7z M856.5,898.7   c28.9-40.3,67-63.3,115.5-68.5c-0.3-0.7-0.3-1.2-0.5-1.5c-6.2-7.8-13.3-15-18.3-23.4c-6.8-11.5-16.2-15.2-28.7-13.8   c-3,0.3-6-0.1-8.9,1.7c-19.2,11.9-37.8,24.4-53.6,40.8c-5.4,5.6-8.7,10.8-7.8,18.8c0.7,6.5-0.2,13.2,0.2,19.8   C854.9,881.1,853.2,889.6,856.5,898.7z M1001,864.8c-5-6.2-10-11.8-14.5-17.9c-3.8-5.2-7.7-7.2-14.8-6.5   c-48,4.9-85.2,27.9-113.7,66.1c-1.8,2.4-2.7,4.9-2.6,8c0.7,13,1.1,26,1.7,39c0.1,1.3-0.5,3,1.6,3.4   C890.6,902.9,937.7,872.4,1001,864.8z M846.7,873.3c0-9.6-1-18.1,0.2-26.3c1.9-12.3-3.9-20.1-12.5-27c-3.5-2.8-7.3-5.5-11.2-7.7   c-14.9-8.4-31.4-10.9-47.8-14c-9.6-1.8-16,0.5-20.9,8.8c-2.2,3.7-5.5,6.7-8.4,9.9c-7.2,8.1-14.5,16.1-22.2,24.7   C770.1,831.9,812.7,832.7,846.7,873.3z M679.3,876.4c15.9-15.8,30.6-31.1,44.6-47c0.9-1,1.3-1.9,0.9-3.3   c-3.9-11.2-13.9-23.4-28.8-21.5c-9.8,1.2-19.6,2.7-29.4,4.2c-9.6,1.5-19.2,3.4-29.7,5.2C669.2,834.3,676.3,844.8,679.3,876.4z    M1014.7,868.1c-1.4-28,7.7-50.6,31.8-68.1c-18-1.7-34.2-3.1-50.3-4.7c-2.2-0.2-3.5,0.8-4.7,2.3c-5.3,6.1-9,12.9-9.6,21   c-0.3,4-1.3,8.3,1.7,11.9C993.9,843,1004.3,855.5,1014.7,868.1z M854.5,832.5c14.2-16.4,29.4-28.7,46.1-40.8c-15,0-28.8,0-42.6,0   c-1.8,0-2.6,0.8-2.6,2.6C856,806.5,855.2,818.6,854.5,832.5z M846.8,822.8c0.6-9.4,0.7-17.8,1.8-26.1c0.6-4.4-0.9-4.9-4.4-4.7   c-14,0.7-28,1.2-42,1.9c-1.2,0.1-2.7-0.2-3.5,1.5C823.1,802.1,830.1,806.1,846.8,822.8z M951.2,792.5c8.3,9.7,15.9,18.6,23.5,27.4   c0.3-9.8,4.5-17.3,9.1-25.6C972.9,793.7,962.7,793.2,951.2,792.5z M714.3,802c8.3,5.5,13.4,11.2,16.8,19.2   c6.9-7.7,13.4-14.9,21.1-23.3C738.9,799.3,727.5,800.5,714.3,802z" fill="#e34c0d"/>
	<path d="M356.8,788.4c2.5-0.4,4.9-1,7.3-1.2c6.2-0.4,10.7,3.2,11.4,8.9c0.8,6.2-2.6,11.1-8.7,12.2c-19.2,3.5-38.5,5.3-58,4.1   c-5.1-0.3-8.4-2.4-8.7-7.6c-0.3-5.3,3.2-8.3,8-8.3c7.2,0,7.2-3.5,7-9.4c-1.4-38.4-6.8-76.6-7.1-115.1c0-5.8-2-7.5-7.5-7   c-13.2,1-26.4,1.9-39.6,2.4c-4.5,0.2-5.3,1.9-5.4,5.9c-1.1,29.6,1,59.1,2.4,88.6c0.7,15.7,0,31.4-2.4,47   c-2.5,16.3-8.7,16.4-23.1,16.7c-14.9,0.3-29.5-2.8-43.8-7.4c-10.6-3.5-21.3-6.5-32.3-8.5c-3.9-0.7-7.2-2.4-7.4-7   c-0.2-4.5,3.3-5.8,6.7-7c5-1.7,10.2-1.8,15.3-1.2c3.4,0.4,4.1-0.8,4.7-3.8c2.9-16.3,4.1-32.8,5.7-49.3c5.1-52.7,7.3-105.6,16-157.9   c1.5-9.1,0.8-18.6,2.7-27.7c0.6-2.8-0.7-3.5-3.2-3.8c-5.7-0.7-11.6,0.1-17.3-1.5c-2-0.6-4.1-0.9-5.9-1.7c-3.3-1.4-6.6-3.3-5.9-7.6   c0.6-4.4,4.2-5.5,7.8-5.7c19-0.6,37.6-6.1,56.7-5.5c6.8,0.2,13.5-1.4,20-3.6c8.2-2.7,15.1,0.5,17.6,7.7c2.6,7.4-0.7,14-8.5,17.4   c-8.4,3.7-8.4,3.7-6.5,12.4c4.1,19,2.9,38.3,2.4,57.5c-0.2,7.2-0.3,14.5-0.7,21.7c-0.2,3.7,1.2,4.6,4.7,4.3   c14.2-1.4,28.4-2.8,42.6-3.9c3.8-0.3,3-2.6,3-4.7c-0.3-17.8-0.8-35.6-1-53.3c-0.1-11-0.8-21.9,0.7-32.9c0.4-3.3-0.9-3.9-3.7-3.8   c-2.5,0-5-0.2-7.4-0.5c-5.5-0.7-8-4.4-8-9.4c-0.1-5,2.4-9,7.8-9.6c24.2-2.8,48.5-6,72.9-2.6c7.8,1.1,12.2,5.9,11.6,12.7   c-0.5,6.6-5.6,10-14,9.8c-5.1-0.1-11.5-3.5-14.8,0c-2.9,3-0.2,9.4-0.4,14.3c-0.9,34.5-1.7,69,0,103.5   C352.4,707.2,354.6,747.7,356.8,788.4z" fill="#e34c0d"/>
	<path d="M833,682.8c-5.8,14.6-12.2,29.1-12.1,45c0.1,6.4-1.8,10.1-7.2,13.6c-10.1,6.5-20.5,11.5-32.8,11.3   c-10.7-0.2-14.8-2.6-17.4-12.9c-4.3-16.8-7.8-33.8-12.1-50.6c-8.4-32.9-15.4-66-19.7-99.6c-0.2-1.9-0.4-3.2-2.9-2.6   c-1.4,0.3-2.9,0.3-4.3,0.2c-2.5-0.1-4.5-1.2-5.2-3.7c-0.7-2.3,1.3-3.2,2.7-4.4c9.4-7.6,21-8.3,32.1-10c6.9-1.1,14-1.4,21-1.7   c7.5-0.4,9.7,1.8,11.1,9.3c7.5,39.2,15.1,78.3,22.7,117.4c0.2,1.2,0.7,2.4,1.4,5c4.6-15.4,9.3-29.6,10.4-44.5   c1.2-15,1.7-30.1,2.9-45.2c0.3-4.2-0.5-5.9-5-6.1c-3-0.1-8.2,2.2-8.6-3.1c-0.4-4.4,4.7-4.5,7.7-5.7c8.8-3.7,18.6-3.3,27.7-6.6   c4-1.5,7.8,1,9.1,5.4c1.4,4.9-0.2,9.4-5.1,10.4c-6.8,1.4-6.1,5-5.1,10.1c4.9,25.9,5,52.2,7.6,78.4c0.7,7.4,1.7,14.7,3.6,22.1   c2.5-12.9,5.2-25.8,7.6-38.7c4.5-23.5,8.9-47.1,13.2-70.6c0.9-4.8,2.6-9.8-5.4-10.4c-3.3-0.3-4.7-3.9-4.8-7.2c-0.1-3.5,1.4-7,4.8-8   c18.5-5.6,35.9-15.1,55.9-15.5c2.9-0.1,5.8,0,8.6,0.6c2.7,0.6,4.9,2.4,4.9,5.6c0,3-2,5-4.4,5.2c-9.6,0.5-9.6,6.6-9.3,13.8   c0.6,13.4-2.4,26.4-6.6,39c-10,29.7-14.8,60.5-19.5,91.4c-1.5,9.8-3.6,19.5-5.8,29.1c-2.2,10-11,16.8-22.8,17.7   c-6.6,0.5-13.2,0.8-19.8,0.4c-5.7-0.3-8.1-4.9-8.7-9.8c-3.1-23.8-8.3-47.2-9.9-71.2C833.2,684.6,833.1,683.7,833,682.8z" fill="#e34c0d"/>
	<path d="M461.5,709.8c-7.8,6.3-15.5,10.7-23.7,14c-3.3,1.3-2.7,4.5-2.8,6.9c-0.7,10.3-1.2,20.6-1.7,31   c-0.6,11.3-3.3,13.9-14.7,14.2c-9.9,0.3-19.8,0.7-29.8,0.8c-10.6,0.1-13-2.4-13.8-12.8c-1.8-22.9,0.8-45.4,4.1-68   c3-21.1,5.7-42.2,7-63.4c1.3-19.7,10.8-28.8,30.7-30.1c12.2-0.8,24.4-0.1,36.5-2c4.2-0.7,6.8,2.1,7.3,6   c6.7,45.2,14.2,90.3,13.8,136.2c0,0.4,0,0.8,0,1.2c0,3.4-0.8,6.5-4.8,6.6c-3.8,0.1-4.6-2.9-4.9-6c-0.5-5.8-0.9-11.5-1.5-17.3   C462.7,721.7,462.1,716.4,461.5,709.8z M450.3,632.6c-2.9,23.5-8.1,46.7-11.9,71.1c6.8-4,11.5-8.8,16.8-12.6   c2.6-1.8,3.4-3.6,2.9-6.6C455.5,667.2,452.9,649.9,450.3,632.6z" fill="#e34c0d"/>
	<path d="M611.4,717.2c-0.5,7.4-0.7,14.9-1.4,22.3c-0.4,3.7,0.9,4.4,4.4,4.3c12.5-0.3,12.5-0.2,12.6-12.3c0-2.7,0-5.4,0.3-8.1   c0.4-3.8,2.9-5.9,6.6-6.2c3.7-0.3,6.5,1.9,6.7,5.2c0.8,10.3,1.4,20.6,1,30.9c-0.2,5.2-5.1,6.2-9.8,6.7c-17.3,1.6-34.7,2.4-51.7,6.2   c-2.6,0.6-5.2,1.2-7.8,1.9c-9.3,2.4-13.8-0.7-14.4-10.4c-0.6-8.5,0.2-17,1-25.4c1.5-15.5,1.7-31,1.1-46.5   c-0.9-25.9,1.7-51.6,4.3-77.3c0.4-4.1,0.5-8.3,0.7-12.4c0.1-2.5-0.1-4.3-2.9-5.9c-5.2-3.1-4.5-9.3,1.2-11.4c3.8-1.4,8-2,12.1-2.6   c9.6-1.3,19.3-2.5,28.9-3.6c4.8-0.6,8.9,0.9,10.1,6c1.2,4.8,0.5,9.3-4.9,11.3c-2.1,0.8-2.1,2-2.2,3.8c-1.5,25.4-3.7,50.7-0.2,76.1   C609.3,685.4,611.5,701.2,611.4,717.2z" fill="#e34c0d"/>
	<path d="M1005.8,700c2-27.6,4.2-58.3,6.3-89c0.4-6.3,2.8-10.5,9.8-11.1c14.8-1.4,29.7-2.1,44.5-0.4c5.5,0.6,8.6,3.3,9.4,8.9   c0.5,3.5,1.6,6.9,1.7,10.4c0.2,4.9-2.1,8.5-7.4,8.9c-5.2,0.4-9.4-1.6-9.6-7.2c-0.2-4.7-2.9-4.6-6.1-5.1c-2-0.3-3.1-0.1-2.9,2.4   c0.7,17-3.4,33.7-2.3,50.7c0.5,7.9,0.1,7.9,8.1,6.3c3.4-0.7,6.9-1.5,10.4-1.8c5.3-0.4,8.9,2.3,9.8,7.4c0.9,5-2,8.2-6.5,10   c-5.1,2-10.6,1.5-15.9,1.8c-3.9,0.2-4.7,1.6-4.5,5.3c0.7,12.8,2.5,25.5,5.2,38c0.8,3.4,1.2,6.9,1.5,10.4c0.8,9,0.8,8.9,9.8,8   c3.2-0.3,4.9-1.2,4.5-4.9c-0.5-5.3,2-8.8,7.6-9.2c4.9-0.3,8.1,3.4,8.5,9.4c0.8,13.4-2.4,17.8-15.4,21.1c-10.3,2.6-20.8,3-31.4,2.1   c-17.3-1.4-32.3-16.5-34.1-33.2C1005.5,727,1006.1,715.1,1005.8,700z" fill="#e34c0d"/>
	<path d="M634.3,666.8c0.5-16.1,6.2-36.2,21.3-52.8c8.1-8.9,18-14.3,30.4-14.4c1.6,0,3.3-0.4,4.8-0.9c11.4-3.4,20.1-1.1,26.3,9.2   c20.9,34.8,22.1,80.1-9.5,112.8c-17.1,17.8-39.2,16.9-56-1.2C639.6,706.4,634.3,692.2,634.3,666.8z M697,706.9   c1.9-2.5,3.4-4.2,4.6-6.1c16.6-25.2,15.8-51.3,3.7-77.8c-1.4-3.1-2.9-7.4-6.9-7.1c-4.2,0.3-5.1,4.9-6.7,8.2   c-0.1,0.2-0.1,0.4-0.2,0.6C684.2,652.3,684.8,679.4,697,706.9z" fill="#e34c0d"/>
	<path d="M585.3,524c1.6-0.4,2.9-0.8,4.3-1.1c4-0.7,6.4,1.5,7.4,5c1,3.4-0.4,6.4-4,7.3c-6.4,1.7-13,2.6-19.6,2.6   c-3.5,0-4-2.8-4.6-5.6c-3.8-17.2-6.1-34.6-7.7-52.1c-0.9-9.9-0.9-9.6-10.5-7.5c-6.3,1.3-8.5,3.3-7.3,10.5   c2.5,15.3,3.5,30.8,5.2,46.2c0.6,5.7-1.6,8.6-7.3,9.2c-6.6,0.7-13.1,1.5-19.7,2.3c-4.8,0.6-7.9-1-9-6.2   c-2.6-11.7-3.7-23.7-4.6-35.6c-1.6-22.7-3.7-45.3-6.3-67.9c-0.3-2.7-1-4.1-4-4.1c-2,0-4.1-0.5-6.1-1.1c-2.7-0.8-3.8-2.9-3.9-5.7   c-0.1-2.6,1.1-4.6,3.5-5.2c11.6-3.1,23.2-5.9,35.3-3.6c5,0.9,7.5,4.6,8.7,9.4c2.9,11.5,3.3,23.3,4.6,35c0.4,4,1.4,4.7,5.2,3.5   c13.7-4.3,13.7-4.2,13.5-18.6c-0.1-7.2-0.1-14.5,0-21.7c0.1-3-0.4-5.2-3.9-5.8c-2.4-0.4-4-2.2-3.9-4.9c0.2-3,2.2-4.3,4.9-4.7   c7.4-1,14.8-1.5,22.3-0.8c5.8,0.5,7.5,4.1,7,9.5c-3.5,36.4,1.2,72.7-0.1,109.1C584.9,522.2,585.1,522.9,585.3,524z" fill="#e34c0d"/>
	<path d="M718.1,545.4c-6.1,0.1-12-1.2-17.9-1.8c-3-0.3-5.8-1.3-6.1-5c-0.2-3.6,2.5-4.6,5.2-4.9c4.6-0.6,5.2-3.2,4.6-7.3   c-5-40-9.8-80-13.2-120.2c-0.4-4.3-1.8-4-4.9-2.8c-3.7,1.4-8.5,5.4-11.1-0.8c-2.6-6.2,3.5-7.4,7.3-9.3   c29.6-14.3,64.1-2.5,76.1,25.8c9.5,22.5,1.5,50.3-19.3,60.3c-8.4,4-9.2,8.4-8.7,15.8c0.6,9.7,0.3,19.4,0.3,29.2   c0,2.6,0.2,4.5,3.3,5.6c3.8,1.3,4.8,4.9,4.4,8.7c-0.5,4-3.3,5.4-7,5.7C726.7,544.7,722.4,545.1,718.1,545.4z M728.5,464.2   c11.3-5.3,18.1-16.9,17.4-28.5c-0.9-14.4-10.1-27.1-23.6-31.9C724.6,423.9,727.2,443.7,728.5,464.2z" fill="#e34c0d"/>
	<path d="M772.6,411.6c-1.6,0.9-2.4,1.4-3.3,1.9c-2.8,1.7-5.2,1-7.1-1.4c-2-2.5-0.7-4.6,1.1-6.6c10-11.5,22.7-15.5,37.4-12.3   c19.9,4.3,34,20.3,37.5,41.5c1.8,11.3,1.2,22.3-3.9,32.6c-5,10.1-13.1,16.5-24.4,17.8c-3.4,0.4-3.8,1.5-4,4.5   c-0.6,12.4-1.4,24.7-2.2,37.1c-0.5,6.9-2.9,9.2-9.5,9.7c-4.9,0.4-9.9,0.7-14.8,1.1c-6.7,0.5-9.6-1.8-9.9-8.7   c-0.7-16.7-0.8-33.5-0.2-50.2c0.8-20.6,0.6-41.3,4-61.8C773.4,415.5,772.9,414,772.6,411.6z M805.9,412.1c-0.5,0.8-0.9,1.2-0.9,1.4   c1.1,17.3,1.2,34.7,1.1,52c0,3.9,1.8,4,4.7,2.9c3-1.2,5.2-3.3,7-5.9c5-7.1,5.2-15.2,4.1-23.2C820.5,428.1,815.8,418.6,805.9,412.1z   " fill="#e34c0d"/>
	<path d="M929.4,689c0.8-19.6,2.4-39.2,3.9-58.8c0.4-5.5-0.5-11.1-0.5-16.7c0-7,2.9-10.1,9.7-11.4c10.5-1.9,21-0.9,31.4,0.8   c2.6,0.4,4.6,0.6,6.7-1.6c2.4-2.6,5.7-2.4,8.6-1c2.9,1.4,4.2,4,4,7.1c-0.4,5.6-1.2,11.1-3.1,16.4c-0.9,2.4-2.2,4.6-5.3,4.3   c-2.7-0.3-4.1-2.2-4.2-4.7c-0.2-5.7-3.4-5.6-7.8-4.8c-12.3,2.1-12.2,1.9-10.9,14.4c1,9.7,2.1,19.3,2.7,29c0.2,3.9,1.6,4.9,5.2,4.6   c4.5-0.4,9.1,0,13.5,1.5c6.5,2.4,9.2,10.6,5.4,16.4c-2.3,3.5-5.4,4-9.2,2.9c-15.9-4.4-12.2-2.3-11.7,9.6c0.4,9.9,1.1,19.8,1.3,29.7   c0.1,4,1.4,5.2,5.1,4.3c1.8-0.4,3.7-0.8,5.5-0.8c3.5,0,5.6-0.7,5.7-4.9c0.1-3.7,2-7.1,6.6-6.5c4,0.5,5.3,3.6,5.3,7.3   c0,20.6,1.6,21.5-19.7,22.9c-8.9,0.6-17.7,1.3-26.6,1.1c-10.6-0.2-14.7-3.3-18.5-13.2c-2.7-6.9-2.7-14.1-3-21.4   c-0.2-4.5,0-9.1,0-13.6C929.4,697.6,929.4,693.3,929.4,689z" fill="#e34c0d"/>
	<path d="M658,409.6c1.4,0,2.9,0,4.3,0c7.3,0,9.1,1.7,9.5,9c1.2,21.9,2.1,43.7,3.5,65.6c1.3,19.8,3,39.5,4.5,59.3   c0.2,3.1,0.4,6.2,0.3,9.3c-0.1,3.5-2.5,5.2-5.6,5.6c-3.1,0.3-5.9-0.9-6.5-4.3c-1-5.7-1.9-11.4-2.4-17.2   c-1.3-14.2-2.5-28.4-3.5-42.6c-0.2-2.9-0.8-5.1-4.2-4.2c-3,0.8-8-2.3-8.7,3.8c-1.2,9.8-2.6,19.7-3.4,29.5   c-1.9,21.5-17.7,22.6-31.8,18.5c-3.2-0.9-4.3-3.6-3.9-6.9c2.8-23.4,5.6-46.7,8.5-70.1c1.8-14.5,4-29,5.8-43.6   c0.6-4.6,2.7-6.9,7.2-7.9C640.4,411.4,649.1,410,658,409.6z M659.4,446.2c-0.4,0-0.8,0.1-1.3,0.1c-1.7,8.1-3.4,16.1-4.9,24.2   c-0.3,1.6-2.8,5,1.9,4.6c2.6-0.2,6,0.8,5.6-4.2C660,462.7,659.8,454.5,659.4,446.2z" fill="#e34c0d"/>
	<path d="M892.1,455.1c7.3-14.7,14-28,20.7-41.2c1.1-2.1,1.7-3.8-1.4-4.6c-1.4-0.4-2.8-1.2-2.4-3.1c0.3-2,1.9-2.6,3.6-2.8   c6.8-0.6,13.6-1.2,20.4-1.7c2.7-0.2,4.2,1.7,4.3,4.3c0.1,2.7-1.5,4.9-4,4.5c-8.9-1.5-10.2,5.3-12.7,11c-4.7,10.8-9,21.8-14.2,32.3   c-6.8,13.7-11.1,27.7-10.5,43.3c0.4,10.5-0.3,21.1-1.3,31.6c-0.5,5.7,0.8,7.6,6.4,6.4c4.3-0.9,7.4,0.7,7.9,5.4   c0.4,3.7-0.8,6.6-5,7.2c-14.4,1.8-28.7,3.4-43.2,3.4c-2.7,0-6.5-0.2-7.2-3.6c-0.8-4.1,3.2-5.1,5.9-5.8c3.6-1,4.3-3,4.3-6.3   c0-18.6,0.1-37.2,0.4-55.8c0.1-3.5-1.5-6.3-2.5-9.4c-5.4-16.7-10.6-33.5-15.8-50.2c-0.8-2.5-1-5.3-1.2-7.9   c-0.2-2.7-0.3-4.7-3.9-4.9c-3.1-0.2-6.2-1.6-6.4-5.5c-0.2-3.8,2.6-5.8,5.6-6.5c13.4-3.2,27-3.4,40.6-0.8c2.8,0.5,4,2.8,4.2,5.5   c0.1,3-0.6,6.4-3.5,7.3c-4.8,1.5-3.6,3.9-2.5,7.2C883.1,427.3,887.3,440.5,892.1,455.1z" fill="#e34c0d"/>
</g>
</svg>